<svg width="1512" height="569" viewBox="0 0 1512 569" fill="none" xmlns="http://www.w3.org/2000/svg">
<g clip-path="url(#clip0_221_866)">
<rect width="1512" height="569" fill="url(#paint0_linear_221_866)"/>
<circle cx="972" cy="640" r="284" fill="#F5F5F7" fill-opacity="0.3"/>
<circle cy="13" r="125" fill="#F5F5F7" fill-opacity="0.2"/>
<circle cx="1363.5" cy="135.5" r="82" stroke="#F5F5F7" stroke-opacity="0.4" stroke-width="5"/>
<circle cx="1424" cy="196" r="24" fill="#F5F5F7" fill-opacity="0.3"/>
<circle cx="541" cy="418" r="64.5" stroke="#F5F5F7"/>
<circle cx="1476" cy="427" r="10" fill="#F5F5F7" fill-opacity="0.4"/>
<circle cx="1476" cy="385" r="10" fill="#F5F5F7" fill-opacity="0.4"/>
<circle cx="1476" cy="343" r="10" fill="#F5F5F7" fill-opacity="0.4"/>
<circle cx="1476" cy="469" r="10" fill="#F5F5F7" fill-opacity="0.4"/>
<circle cx="1476" cy="301" r="10" fill="#F5F5F7" fill-opacity="0.4"/>
<circle cx="417.4" cy="31" r="6" transform="rotate(-90 417.4 31)" fill="#F5F5F7" fill-opacity="0.8"/>
<circle cx="394.6" cy="31" r="6" transform="rotate(-90 394.6 31)" fill="#F5F5F7" fill-opacity="0.8"/>
<circle cx="371.8" cy="31" r="6" transform="rotate(-90 371.8 31)" fill="#F5F5F7" fill-opacity="0.8"/>
<circle cx="349" cy="31" r="6" transform="rotate(-90 349 31)" fill="#F5F5F7" fill-opacity="0.8"/>
<circle cx="440.2" cy="31" r="6" transform="rotate(-90 440.2 31)" fill="#F5F5F7" fill-opacity="0.8"/>
<circle cx="554.2" cy="31" r="6" transform="rotate(-90 554.2 31)" fill="#F5F5F7" fill-opacity="0.8"/>
<circle cx="463" cy="31" r="6" transform="rotate(-90 463 31)" fill="#F5F5F7" fill-opacity="0.8"/>
<circle cx="599.8" cy="31" r="6" transform="rotate(-90 599.8 31)" fill="#F5F5F7" fill-opacity="0.8"/>
<circle cx="531.4" cy="31" r="6" transform="rotate(-90 531.4 31)" fill="#F5F5F7" fill-opacity="0.8"/>
<circle cx="508.6" cy="31" r="6" transform="rotate(-90 508.6 31)" fill="#F5F5F7" fill-opacity="0.8"/>
<circle cx="485.8" cy="31" r="6" transform="rotate(-90 485.8 31)" fill="#F5F5F7" fill-opacity="0.8"/>
<circle cx="577" cy="31" r="6" transform="rotate(-90 577 31)" fill="#F5F5F7" fill-opacity="0.8"/>
<circle cx="22" cy="508" r="5" fill="#F5F5F7" fill-opacity="0.7"/>
<circle cx="22" cy="489" r="5" fill="#F5F5F7" fill-opacity="0.7"/>
<circle cx="22" cy="470" r="5" fill="#F5F5F7" fill-opacity="0.7"/>
<circle cx="22" cy="451" r="5" fill="#F5F5F7" fill-opacity="0.7"/>
<circle cx="22" cy="527" r="5" fill="#F5F5F7" fill-opacity="0.7"/>
<circle cx="39" cy="508" r="5" fill="#F5F5F7" fill-opacity="0.7"/>
<circle cx="22" cy="546" r="5" fill="#F5F5F7" fill-opacity="0.7"/>
<circle cx="39" cy="546" r="5" fill="#F5F5F7" fill-opacity="0.7"/>
<circle cx="39" cy="489" r="5" fill="#F5F5F7" fill-opacity="0.7"/>
<circle cx="39" cy="470" r="5" fill="#F5F5F7" fill-opacity="0.7"/>
<circle cx="39" cy="451" r="5" fill="#F5F5F7" fill-opacity="0.7"/>
<circle cx="39" cy="527" r="5" fill="#F5F5F7" fill-opacity="0.7"/>
<circle cx="430" cy="202" r="16" fill="#F5F5F7" fill-opacity="0.5"/>
<circle cx="778.5" cy="562.5" r="2.5" transform="rotate(-180 778.5 562.5)" fill="#F5F5F7" fill-opacity="0.9"/>
<circle cx="778.5" cy="534.5" r="2.5" transform="rotate(-180 778.5 534.5)" fill="#F5F5F7" fill-opacity="0.9"/>
<circle cx="778.5" cy="548.5" r="2.5" transform="rotate(-180 778.5 548.5)" fill="#F5F5F7" fill-opacity="0.9"/>
<circle cx="745.5" cy="562.5" r="2.5" transform="rotate(-180 745.5 562.5)" fill="#F5F5F7" fill-opacity="0.9"/>
<circle cx="745.5" cy="534.5" r="2.5" transform="rotate(-180 745.5 534.5)" fill="#F5F5F7" fill-opacity="0.9"/>
<circle cx="745.5" cy="548.5" r="2.5" transform="rotate(-180 745.5 548.5)" fill="#F5F5F7" fill-opacity="0.9"/>
<circle cx="756.5" cy="562.5" r="2.5" transform="rotate(-180 756.5 562.5)" fill="#F5F5F7" fill-opacity="0.9"/>
<circle cx="756.5" cy="534.5" r="2.5" transform="rotate(-180 756.5 534.5)" fill="#F5F5F7" fill-opacity="0.9"/>
<circle cx="756.5" cy="548.5" r="2.5" transform="rotate(-180 756.5 548.5)" fill="#F5F5F7" fill-opacity="0.9"/>
<circle cx="767.5" cy="562.5" r="2.5" transform="rotate(-180 767.5 562.5)" fill="#F5F5F7" fill-opacity="0.9"/>
<circle cx="767.5" cy="534.5" r="2.5" transform="rotate(-180 767.5 534.5)" fill="#F5F5F7" fill-opacity="0.9"/>
<circle cx="767.5" cy="548.5" r="2.5" transform="rotate(-180 767.5 548.5)" fill="#F5F5F7" fill-opacity="0.9"/>
<circle cx="734.5" cy="562.5" r="2.5" transform="rotate(-180 734.5 562.5)" fill="#F5F5F7" fill-opacity="0.9"/>
<circle cx="734.5" cy="534.5" r="2.5" transform="rotate(-180 734.5 534.5)" fill="#F5F5F7" fill-opacity="0.9"/>
<circle cx="734.5" cy="548.5" r="2.5" transform="rotate(-180 734.5 548.5)" fill="#F5F5F7" fill-opacity="0.9"/>
<circle cx="701.5" cy="562.5" r="2.5" transform="rotate(-180 701.5 562.5)" fill="#F5F5F7" fill-opacity="0.9"/>
<circle cx="701.5" cy="534.5" r="2.5" transform="rotate(-180 701.5 534.5)" fill="#F5F5F7" fill-opacity="0.9"/>
<circle cx="701.5" cy="548.5" r="2.5" transform="rotate(-180 701.5 548.5)" fill="#F5F5F7" fill-opacity="0.9"/>
<circle cx="712.5" cy="562.5" r="2.5" transform="rotate(-180 712.5 562.5)" fill="#F5F5F7" fill-opacity="0.9"/>
<circle cx="712.5" cy="534.5" r="2.5" transform="rotate(-180 712.5 534.5)" fill="#F5F5F7" fill-opacity="0.9"/>
<circle cx="712.5" cy="548.5" r="2.5" transform="rotate(-180 712.5 548.5)" fill="#F5F5F7" fill-opacity="0.9"/>
<circle cx="723.5" cy="562.5" r="2.5" transform="rotate(-180 723.5 562.5)" fill="#F5F5F7" fill-opacity="0.9"/>
<circle cx="723.5" cy="534.5" r="2.5" transform="rotate(-180 723.5 534.5)" fill="#F5F5F7" fill-opacity="0.9"/>
<circle cx="723.5" cy="548.5" r="2.5" transform="rotate(-180 723.5 548.5)" fill="#F5F5F7" fill-opacity="0.9"/>
<circle cx="690.5" cy="562.5" r="2.5" transform="rotate(-180 690.5 562.5)" fill="#F5F5F7" fill-opacity="0.9"/>
<circle cx="690.5" cy="534.5" r="2.5" transform="rotate(-180 690.5 534.5)" fill="#F5F5F7" fill-opacity="0.9"/>
<circle cx="690.5" cy="548.5" r="2.5" transform="rotate(-180 690.5 548.5)" fill="#F5F5F7" fill-opacity="0.9"/>
<circle cx="657.5" cy="562.5" r="2.5" transform="rotate(-180 657.5 562.5)" fill="#F5F5F7" fill-opacity="0.9"/>
<circle cx="657.5" cy="534.5" r="2.5" transform="rotate(-180 657.5 534.5)" fill="#F5F5F7" fill-opacity="0.9"/>
<circle cx="657.5" cy="548.5" r="2.5" transform="rotate(-180 657.5 548.5)" fill="#F5F5F7" fill-opacity="0.9"/>
<circle cx="668.5" cy="562.5" r="2.5" transform="rotate(-180 668.5 562.5)" fill="#F5F5F7" fill-opacity="0.9"/>
<circle cx="668.5" cy="534.5" r="2.5" transform="rotate(-180 668.5 534.5)" fill="#F5F5F7" fill-opacity="0.9"/>
<circle cx="668.5" cy="548.5" r="2.5" transform="rotate(-180 668.5 548.5)" fill="#F5F5F7" fill-opacity="0.9"/>
<circle cx="679.5" cy="562.5" r="2.5" transform="rotate(-180 679.5 562.5)" fill="#F5F5F7" fill-opacity="0.9"/>
<circle cx="679.5" cy="534.5" r="2.5" transform="rotate(-180 679.5 534.5)" fill="#F5F5F7" fill-opacity="0.9"/>
<circle cx="679.5" cy="548.5" r="2.5" transform="rotate(-180 679.5 548.5)" fill="#F5F5F7" fill-opacity="0.9"/>
<circle cx="646.5" cy="562.5" r="2.5" transform="rotate(-180 646.5 562.5)" fill="#F5F5F7" fill-opacity="0.9"/>
<circle cx="646.5" cy="534.5" r="2.5" transform="rotate(-180 646.5 534.5)" fill="#F5F5F7" fill-opacity="0.9"/>
<circle cx="646.5" cy="548.5" r="2.5" transform="rotate(-180 646.5 548.5)" fill="#F5F5F7" fill-opacity="0.9"/>
<circle cx="635.5" cy="562.5" r="2.5" transform="rotate(-180 635.5 562.5)" fill="#F5F5F7" fill-opacity="0.9"/>
<circle cx="635.5" cy="534.5" r="2.5" transform="rotate(-180 635.5 534.5)" fill="#F5F5F7" fill-opacity="0.9"/>
<circle cx="635.5" cy="548.5" r="2.5" transform="rotate(-180 635.5 548.5)" fill="#F5F5F7" fill-opacity="0.9"/>
<circle cx="1168.5" cy="404.5" r="103.5" fill="#F5F5F7" fill-opacity="0.2"/>
<circle cx="999" cy="13" r="133.5" stroke="#F5F5F7"/>
<circle cx="1307.43" cy="171.793" r="4.57317" transform="rotate(-180 1307.43 171.793)" fill="white" fill-opacity="0.9"/>
<circle cx="1307.43" cy="120.573" r="4.57317" transform="rotate(-180 1307.43 120.573)" fill="white" fill-opacity="0.9"/>
<circle cx="1307.43" cy="146.183" r="4.57317" transform="rotate(-180 1307.43 146.183)" fill="white" fill-opacity="0.9"/>
<circle cx="1247.06" cy="171.793" r="4.57317" transform="rotate(-180 1247.06 171.793)" fill="white" fill-opacity="0.9"/>
<circle cx="1247.06" cy="120.573" r="4.57317" transform="rotate(-180 1247.06 120.573)" fill="white" fill-opacity="0.9"/>
<circle cx="1247.06" cy="146.183" r="4.57317" transform="rotate(-180 1247.06 146.183)" fill="white" fill-opacity="0.9"/>
<circle cx="1267.18" cy="171.793" r="4.57317" transform="rotate(-180 1267.18 171.793)" fill="white" fill-opacity="0.9"/>
<circle cx="1267.18" cy="120.573" r="4.57317" transform="rotate(-180 1267.18 120.573)" fill="white" fill-opacity="0.9"/>
<circle cx="1267.18" cy="146.183" r="4.57317" transform="rotate(-180 1267.18 146.183)" fill="white" fill-opacity="0.9"/>
<circle cx="1287.3" cy="171.793" r="4.57317" transform="rotate(-180 1287.3 171.793)" fill="white" fill-opacity="0.9"/>
<circle cx="1307.43" cy="197.402" r="4.57317" transform="rotate(-180 1307.43 197.402)" fill="white" fill-opacity="0.9"/>
<circle cx="1247.06" cy="197.402" r="4.57317" transform="rotate(-180 1247.06 197.402)" fill="white" fill-opacity="0.9"/>
<circle cx="1267.18" cy="197.402" r="4.57317" transform="rotate(-180 1267.18 197.402)" fill="white" fill-opacity="0.9"/>
<circle cx="1287.3" cy="197.402" r="4.57317" transform="rotate(-180 1287.3 197.402)" fill="white" fill-opacity="0.9"/>
<circle cx="1307.43" cy="223.012" r="4.57317" transform="rotate(-180 1307.43 223.012)" fill="white" fill-opacity="0.9"/>
<circle cx="1247.06" cy="223.012" r="4.57317" transform="rotate(-180 1247.06 223.012)" fill="white" fill-opacity="0.9"/>
<circle cx="1267.18" cy="223.012" r="4.57317" transform="rotate(-180 1267.18 223.012)" fill="white" fill-opacity="0.9"/>
<circle cx="1287.3" cy="223.012" r="4.57317" transform="rotate(-180 1287.3 223.012)" fill="white" fill-opacity="0.9"/>
<circle cx="1287.3" cy="120.573" r="4.57317" transform="rotate(-180 1287.3 120.573)" fill="white" fill-opacity="0.9"/>
<circle cx="1287.3" cy="146.183" r="4.57317" transform="rotate(-180 1287.3 146.183)" fill="white" fill-opacity="0.9"/>
<circle cx="1226.94" cy="171.793" r="4.57317" transform="rotate(-180 1226.94 171.793)" fill="white" fill-opacity="0.9"/>
<circle cx="1226.94" cy="120.573" r="4.57317" transform="rotate(-180 1226.94 120.573)" fill="white" fill-opacity="0.9"/>
<circle cx="1226.94" cy="146.183" r="4.57317" transform="rotate(-180 1226.94 146.183)" fill="white" fill-opacity="0.9"/>
<circle cx="1166.57" cy="171.793" r="4.57317" transform="rotate(-180 1166.57 171.793)" fill="white" fill-opacity="0.9"/>
<circle cx="1166.57" cy="120.573" r="4.57317" transform="rotate(-180 1166.57 120.573)" fill="white" fill-opacity="0.9"/>
<circle cx="1166.57" cy="146.183" r="4.57317" transform="rotate(-180 1166.57 146.183)" fill="white" fill-opacity="0.9"/>
<circle cx="1186.7" cy="171.793" r="4.57317" transform="rotate(-180 1186.7 171.793)" fill="white" fill-opacity="0.9"/>
<circle cx="1186.7" cy="120.573" r="4.57317" transform="rotate(-180 1186.7 120.573)" fill="white" fill-opacity="0.9"/>
<circle cx="1186.7" cy="146.183" r="4.57317" transform="rotate(-180 1186.7 146.183)" fill="white" fill-opacity="0.9"/>
<circle cx="1206.82" cy="171.793" r="4.57317" transform="rotate(-180 1206.82 171.793)" fill="white" fill-opacity="0.9"/>
<circle cx="1226.94" cy="197.402" r="4.57317" transform="rotate(-180 1226.94 197.402)" fill="white" fill-opacity="0.9"/>
<circle cx="1166.57" cy="197.402" r="4.57317" transform="rotate(-180 1166.57 197.402)" fill="white" fill-opacity="0.9"/>
<circle cx="1186.7" cy="197.402" r="4.57317" transform="rotate(-180 1186.7 197.402)" fill="white" fill-opacity="0.9"/>
<circle cx="1206.82" cy="197.402" r="4.57317" transform="rotate(-180 1206.82 197.402)" fill="white" fill-opacity="0.9"/>
<circle cx="1226.94" cy="223.012" r="4.57317" transform="rotate(-180 1226.94 223.012)" fill="white" fill-opacity="0.9"/>
<circle cx="1166.57" cy="223.012" r="4.57317" transform="rotate(-180 1166.57 223.012)" fill="white" fill-opacity="0.9"/>
<circle cx="1186.7" cy="223.012" r="4.57317" transform="rotate(-180 1186.7 223.012)" fill="white" fill-opacity="0.9"/>
<circle cx="1206.82" cy="223.012" r="4.57317" transform="rotate(-180 1206.82 223.012)" fill="white" fill-opacity="0.9"/>
<circle cx="1206.82" cy="120.573" r="4.57317" transform="rotate(-180 1206.82 120.573)" fill="white" fill-opacity="0.9"/>
<circle cx="1206.82" cy="146.183" r="4.57317" transform="rotate(-180 1206.82 146.183)" fill="white" fill-opacity="0.9"/>
<circle cx="81" cy="513" r="123.5" stroke="#F5F5F7" stroke-opacity="0.6" stroke-width="3"/>
<circle cx="100.5" cy="115.5" r="66.5" fill="#F5F5F7" fill-opacity="0.2"/>
<circle cx="187.5" cy="308.5" r="170" stroke="#F5F5F7"/>
</g>
<defs>
<linearGradient id="paint0_linear_221_866" x1="756" y1="0" x2="756" y2="569" gradientUnits="userSpaceOnUse">
<stop stop-color="#C8AFF1"/>
<stop offset="1" stop-color="#73D0E0"/>
</linearGradient>
<clipPath id="clip0_221_866">
<rect width="1512" height="569" fill="white"/>
</clipPath>
</defs>
</svg>
