<svg width="1512" height="681" viewBox="0 0 1512 681" fill="none" xmlns="http://www.w3.org/2000/svg">
<g clip-path="url(#clip0_217_177)">
<rect width="1512" height="681" fill="url(#paint0_linear_217_177)" fill-opacity="0.9"/>
<circle cx="812.5" cy="560.5" r="103.5" fill="white" fill-opacity="0.2"/>
<circle cx="492.5" cy="155.5" r="99" stroke="white" stroke-opacity="0.4" stroke-width="5"/>
<circle cx="542" cy="250" r="24" fill="white" fill-opacity="0.3"/>
<circle cx="708.5" cy="510.5" r="50" stroke="white" stroke-opacity="0.8"/>
<circle cx="41" cy="102" r="5" fill="white" fill-opacity="0.7"/>
<circle cx="41" cy="83" r="5" fill="white" fill-opacity="0.7"/>
<circle cx="41" cy="64" r="5" fill="white" fill-opacity="0.7"/>
<circle cx="41" cy="45" r="5" fill="white" fill-opacity="0.7"/>
<circle cx="41" cy="121" r="5" fill="white" fill-opacity="0.7"/>
<circle cx="58" cy="102" r="5" fill="white" fill-opacity="0.7"/>
<circle cx="41" cy="140" r="5" fill="white" fill-opacity="0.7"/>
<circle cx="58" cy="140" r="5" fill="white" fill-opacity="0.7"/>
<circle cx="58" cy="83" r="5" fill="white" fill-opacity="0.7"/>
<circle cx="58" cy="64" r="5" fill="white" fill-opacity="0.7"/>
<circle cx="58" cy="45" r="5" fill="white" fill-opacity="0.7"/>
<circle cx="58" cy="121" r="5" fill="white" fill-opacity="0.7"/>
<circle cx="750" cy="208.4" r="6" fill="white" fill-opacity="0.8"/>
<circle cx="750" cy="185.6" r="6" fill="white" fill-opacity="0.8"/>
<circle cx="750" cy="162.8" r="6" fill="white" fill-opacity="0.8"/>
<circle cx="750" cy="140" r="6" fill="white" fill-opacity="0.8"/>
<circle cx="750" cy="231.2" r="6" fill="white" fill-opacity="0.8"/>
<circle cx="750" cy="345.2" r="6" fill="white" fill-opacity="0.8"/>
<circle cx="750" cy="254" r="6" fill="white" fill-opacity="0.8"/>
<circle cx="750" cy="390.8" r="6" fill="white" fill-opacity="0.8"/>
<circle cx="750" cy="322.4" r="6" fill="white" fill-opacity="0.8"/>
<circle cx="750" cy="299.6" r="6" fill="white" fill-opacity="0.8"/>
<circle cx="750" cy="276.8" r="6" fill="white" fill-opacity="0.8"/>
<circle cx="750" cy="368" r="6" fill="white" fill-opacity="0.8"/>
<circle cx="1375" cy="537" r="10" fill="white" fill-opacity="0.4"/>
<circle cx="1375" cy="495" r="10" fill="white" fill-opacity="0.4"/>
<circle cx="1375" cy="453" r="10" fill="white" fill-opacity="0.4"/>
<circle cx="1375" cy="579" r="10" fill="white" fill-opacity="0.4"/>
<circle cx="1375" cy="411" r="10" fill="white" fill-opacity="0.4"/>
<circle cx="991" cy="53" r="16" fill="white" fill-opacity="0.5"/>
<circle cx="472.5" cy="663.5" r="2.5" transform="rotate(-180 472.5 663.5)" fill="white" fill-opacity="0.6"/>
<circle cx="472.5" cy="635.5" r="2.5" transform="rotate(-180 472.5 635.5)" fill="white" fill-opacity="0.6"/>
<circle cx="472.5" cy="649.5" r="2.5" transform="rotate(-180 472.5 649.5)" fill="white" fill-opacity="0.6"/>
<circle cx="439.5" cy="663.5" r="2.5" transform="rotate(-180 439.5 663.5)" fill="white" fill-opacity="0.6"/>
<circle cx="439.5" cy="635.5" r="2.5" transform="rotate(-180 439.5 635.5)" fill="white" fill-opacity="0.6"/>
<circle cx="439.5" cy="649.5" r="2.5" transform="rotate(-180 439.5 649.5)" fill="white" fill-opacity="0.6"/>
<circle cx="450.5" cy="663.5" r="2.5" transform="rotate(-180 450.5 663.5)" fill="white" fill-opacity="0.6"/>
<circle cx="450.5" cy="635.5" r="2.5" transform="rotate(-180 450.5 635.5)" fill="white" fill-opacity="0.6"/>
<circle cx="450.5" cy="649.5" r="2.5" transform="rotate(-180 450.5 649.5)" fill="white" fill-opacity="0.6"/>
<circle cx="461.5" cy="663.5" r="2.5" transform="rotate(-180 461.5 663.5)" fill="white" fill-opacity="0.6"/>
<circle cx="472.5" cy="677.5" r="2.5" transform="rotate(-180 472.5 677.5)" fill="white" fill-opacity="0.6"/>
<circle cx="439.5" cy="677.5" r="2.5" transform="rotate(-180 439.5 677.5)" fill="white" fill-opacity="0.6"/>
<circle cx="450.5" cy="677.5" r="2.5" transform="rotate(-180 450.5 677.5)" fill="white" fill-opacity="0.6"/>
<circle cx="461.5" cy="677.5" r="2.5" transform="rotate(-180 461.5 677.5)" fill="white" fill-opacity="0.6"/>
<circle cx="461.5" cy="635.5" r="2.5" transform="rotate(-180 461.5 635.5)" fill="white" fill-opacity="0.6"/>
<circle cx="461.5" cy="649.5" r="2.5" transform="rotate(-180 461.5 649.5)" fill="white" fill-opacity="0.6"/>
<circle cx="428.5" cy="663.5" r="2.5" transform="rotate(-180 428.5 663.5)" fill="white" fill-opacity="0.6"/>
<circle cx="428.5" cy="635.5" r="2.5" transform="rotate(-180 428.5 635.5)" fill="white" fill-opacity="0.6"/>
<circle cx="428.5" cy="649.5" r="2.5" transform="rotate(-180 428.5 649.5)" fill="white" fill-opacity="0.6"/>
<circle cx="395.5" cy="663.5" r="2.5" transform="rotate(-180 395.5 663.5)" fill="white" fill-opacity="0.6"/>
<circle cx="395.5" cy="635.5" r="2.5" transform="rotate(-180 395.5 635.5)" fill="white" fill-opacity="0.6"/>
<circle cx="395.5" cy="649.5" r="2.5" transform="rotate(-180 395.5 649.5)" fill="white" fill-opacity="0.6"/>
<circle cx="406.5" cy="663.5" r="2.5" transform="rotate(-180 406.5 663.5)" fill="white" fill-opacity="0.6"/>
<circle cx="406.5" cy="635.5" r="2.5" transform="rotate(-180 406.5 635.5)" fill="white" fill-opacity="0.6"/>
<circle cx="406.5" cy="649.5" r="2.5" transform="rotate(-180 406.5 649.5)" fill="white" fill-opacity="0.6"/>
<circle cx="417.5" cy="663.5" r="2.5" transform="rotate(-180 417.5 663.5)" fill="white" fill-opacity="0.6"/>
<circle cx="428.5" cy="677.5" r="2.5" transform="rotate(-180 428.5 677.5)" fill="white" fill-opacity="0.6"/>
<circle cx="395.5" cy="677.5" r="2.5" transform="rotate(-180 395.5 677.5)" fill="white" fill-opacity="0.6"/>
<circle cx="406.5" cy="677.5" r="2.5" transform="rotate(-180 406.5 677.5)" fill="white" fill-opacity="0.6"/>
<circle cx="417.5" cy="677.5" r="2.5" transform="rotate(-180 417.5 677.5)" fill="white" fill-opacity="0.6"/>
<circle cx="417.5" cy="635.5" r="2.5" transform="rotate(-180 417.5 635.5)" fill="white" fill-opacity="0.6"/>
<circle cx="417.5" cy="649.5" r="2.5" transform="rotate(-180 417.5 649.5)" fill="white" fill-opacity="0.6"/>
<circle cx="527.5" cy="663.5" r="2.5" transform="rotate(-180 527.5 663.5)" fill="white" fill-opacity="0.6"/>
<circle cx="527.5" cy="635.5" r="2.5" transform="rotate(-180 527.5 635.5)" fill="white" fill-opacity="0.6"/>
<circle cx="527.5" cy="649.5" r="2.5" transform="rotate(-180 527.5 649.5)" fill="white" fill-opacity="0.6"/>
<circle cx="527.5" cy="677.5" r="2.5" transform="rotate(-180 527.5 677.5)" fill="white" fill-opacity="0.6"/>
<circle cx="516.5" cy="663.5" r="2.5" transform="rotate(-180 516.5 663.5)" fill="white" fill-opacity="0.6"/>
<circle cx="516.5" cy="635.5" r="2.5" transform="rotate(-180 516.5 635.5)" fill="white" fill-opacity="0.6"/>
<circle cx="516.5" cy="649.5" r="2.5" transform="rotate(-180 516.5 649.5)" fill="white" fill-opacity="0.6"/>
<circle cx="483.5" cy="663.5" r="2.5" transform="rotate(-180 483.5 663.5)" fill="white" fill-opacity="0.6"/>
<circle cx="483.5" cy="635.5" r="2.5" transform="rotate(-180 483.5 635.5)" fill="white" fill-opacity="0.6"/>
<circle cx="483.5" cy="649.5" r="2.5" transform="rotate(-180 483.5 649.5)" fill="white" fill-opacity="0.6"/>
<circle cx="494.5" cy="663.5" r="2.5" transform="rotate(-180 494.5 663.5)" fill="white" fill-opacity="0.6"/>
<circle cx="494.5" cy="635.5" r="2.5" transform="rotate(-180 494.5 635.5)" fill="white" fill-opacity="0.6"/>
<circle cx="494.5" cy="649.5" r="2.5" transform="rotate(-180 494.5 649.5)" fill="white" fill-opacity="0.6"/>
<circle cx="505.5" cy="663.5" r="2.5" transform="rotate(-180 505.5 663.5)" fill="white" fill-opacity="0.6"/>
<circle cx="516.5" cy="677.5" r="2.5" transform="rotate(-180 516.5 677.5)" fill="white" fill-opacity="0.6"/>
<circle cx="483.5" cy="677.5" r="2.5" transform="rotate(-180 483.5 677.5)" fill="white" fill-opacity="0.6"/>
<circle cx="494.5" cy="677.5" r="2.5" transform="rotate(-180 494.5 677.5)" fill="white" fill-opacity="0.6"/>
<circle cx="505.5" cy="677.5" r="2.5" transform="rotate(-180 505.5 677.5)" fill="white" fill-opacity="0.6"/>
<circle cx="505.5" cy="635.5" r="2.5" transform="rotate(-180 505.5 635.5)" fill="white" fill-opacity="0.6"/>
<circle cx="505.5" cy="649.5" r="2.5" transform="rotate(-180 505.5 649.5)" fill="white" fill-opacity="0.6"/>
<circle cx="1332" cy="52" r="64.5" stroke="white"/>
<circle cx="176" cy="557" r="285" fill="white" fill-opacity="0.3"/>
<circle cx="36.5" cy="375.5" r="157.5" fill="white" fill-opacity="0.2"/>
<circle cx="1502.5" cy="214.5" r="2.5" transform="rotate(-180 1502.5 214.5)" fill="white" fill-opacity="0.9"/>
<circle cx="1502.5" cy="186.5" r="2.5" transform="rotate(-180 1502.5 186.5)" fill="white" fill-opacity="0.9"/>
<circle cx="1502.5" cy="200.5" r="2.5" transform="rotate(-180 1502.5 200.5)" fill="white" fill-opacity="0.9"/>
<circle cx="1469.5" cy="214.5" r="2.5" transform="rotate(-180 1469.5 214.5)" fill="white" fill-opacity="0.9"/>
<circle cx="1469.5" cy="186.5" r="2.5" transform="rotate(-180 1469.5 186.5)" fill="white" fill-opacity="0.9"/>
<circle cx="1469.5" cy="200.5" r="2.5" transform="rotate(-180 1469.5 200.5)" fill="white" fill-opacity="0.9"/>
<circle cx="1480.5" cy="214.5" r="2.5" transform="rotate(-180 1480.5 214.5)" fill="white" fill-opacity="0.9"/>
<circle cx="1480.5" cy="186.5" r="2.5" transform="rotate(-180 1480.5 186.5)" fill="white" fill-opacity="0.9"/>
<circle cx="1480.5" cy="200.5" r="2.5" transform="rotate(-180 1480.5 200.5)" fill="white" fill-opacity="0.9"/>
<circle cx="1491.5" cy="214.5" r="2.5" transform="rotate(-180 1491.5 214.5)" fill="white" fill-opacity="0.9"/>
<circle cx="1502.5" cy="228.5" r="2.5" transform="rotate(-180 1502.5 228.5)" fill="white" fill-opacity="0.9"/>
<circle cx="1469.5" cy="228.5" r="2.5" transform="rotate(-180 1469.5 228.5)" fill="white" fill-opacity="0.9"/>
<circle cx="1480.5" cy="228.5" r="2.5" transform="rotate(-180 1480.5 228.5)" fill="white" fill-opacity="0.9"/>
<circle cx="1491.5" cy="228.5" r="2.5" transform="rotate(-180 1491.5 228.5)" fill="white" fill-opacity="0.9"/>
<circle cx="1502.5" cy="242.5" r="2.5" transform="rotate(-180 1502.5 242.5)" fill="white" fill-opacity="0.9"/>
<circle cx="1469.5" cy="242.5" r="2.5" transform="rotate(-180 1469.5 242.5)" fill="white" fill-opacity="0.9"/>
<circle cx="1480.5" cy="242.5" r="2.5" transform="rotate(-180 1480.5 242.5)" fill="white" fill-opacity="0.9"/>
<circle cx="1491.5" cy="242.5" r="2.5" transform="rotate(-180 1491.5 242.5)" fill="white" fill-opacity="0.9"/>
<circle cx="1491.5" cy="186.5" r="2.5" transform="rotate(-180 1491.5 186.5)" fill="white" fill-opacity="0.9"/>
<circle cx="1491.5" cy="200.5" r="2.5" transform="rotate(-180 1491.5 200.5)" fill="white" fill-opacity="0.9"/>
<circle cx="1458.5" cy="214.5" r="2.5" transform="rotate(-180 1458.5 214.5)" fill="white" fill-opacity="0.9"/>
<circle cx="1458.5" cy="186.5" r="2.5" transform="rotate(-180 1458.5 186.5)" fill="white" fill-opacity="0.9"/>
<circle cx="1458.5" cy="200.5" r="2.5" transform="rotate(-180 1458.5 200.5)" fill="white" fill-opacity="0.9"/>
<circle cx="1425.5" cy="214.5" r="2.5" transform="rotate(-180 1425.5 214.5)" fill="white" fill-opacity="0.9"/>
<circle cx="1425.5" cy="186.5" r="2.5" transform="rotate(-180 1425.5 186.5)" fill="white" fill-opacity="0.9"/>
<circle cx="1425.5" cy="200.5" r="2.5" transform="rotate(-180 1425.5 200.5)" fill="white" fill-opacity="0.9"/>
<circle cx="1436.5" cy="214.5" r="2.5" transform="rotate(-180 1436.5 214.5)" fill="white" fill-opacity="0.9"/>
<circle cx="1436.5" cy="186.5" r="2.5" transform="rotate(-180 1436.5 186.5)" fill="white" fill-opacity="0.9"/>
<circle cx="1436.5" cy="200.5" r="2.5" transform="rotate(-180 1436.5 200.5)" fill="white" fill-opacity="0.9"/>
<circle cx="1447.5" cy="214.5" r="2.5" transform="rotate(-180 1447.5 214.5)" fill="white" fill-opacity="0.9"/>
<circle cx="1458.5" cy="228.5" r="2.5" transform="rotate(-180 1458.5 228.5)" fill="white" fill-opacity="0.9"/>
<circle cx="1425.5" cy="228.5" r="2.5" transform="rotate(-180 1425.5 228.5)" fill="white" fill-opacity="0.9"/>
<circle cx="1436.5" cy="228.5" r="2.5" transform="rotate(-180 1436.5 228.5)" fill="white" fill-opacity="0.9"/>
<circle cx="1447.5" cy="228.5" r="2.5" transform="rotate(-180 1447.5 228.5)" fill="white" fill-opacity="0.9"/>
<circle cx="1458.5" cy="242.5" r="2.5" transform="rotate(-180 1458.5 242.5)" fill="white" fill-opacity="0.9"/>
<circle cx="1425.5" cy="242.5" r="2.5" transform="rotate(-180 1425.5 242.5)" fill="white" fill-opacity="0.9"/>
<circle cx="1436.5" cy="242.5" r="2.5" transform="rotate(-180 1436.5 242.5)" fill="white" fill-opacity="0.9"/>
<circle cx="1447.5" cy="242.5" r="2.5" transform="rotate(-180 1447.5 242.5)" fill="white" fill-opacity="0.9"/>
<circle cx="1447.5" cy="186.5" r="2.5" transform="rotate(-180 1447.5 186.5)" fill="white" fill-opacity="0.9"/>
<circle cx="1447.5" cy="200.5" r="2.5" transform="rotate(-180 1447.5 200.5)" fill="white" fill-opacity="0.9"/>
<circle cx="1251" cy="842" r="217.5" stroke="white" stroke-opacity="0.6" stroke-width="3"/>
<circle cx="1422" cy="325" r="125" fill="white" fill-opacity="0.2"/>
</g>
<defs>
<linearGradient id="paint0_linear_217_177" x1="756" y1="0" x2="756" y2="681" gradientUnits="userSpaceOnUse">
<stop stop-color="#F7C991"/>
<stop offset="1" stop-color="#F0A5BB"/>
</linearGradient>
<clipPath id="clip0_217_177">
<rect width="1512" height="681" fill="white"/>
</clipPath>
</defs>
</svg>
