<svg width="1512" height="889" viewBox="0 0 1512 889" fill="none" xmlns="http://www.w3.org/2000/svg">
<g clip-path="url(#clip0_221_339)">
<rect width="1512" height="889" fill="url(#paint0_linear_221_339)"/>
<circle cx="1483.5" cy="751.5" r="157.5" fill="white" fill-opacity="0.2"/>
<circle cx="1440" cy="328.4" r="6" fill="white" fill-opacity="0.8"/>
<circle cx="1440" cy="305.6" r="6" fill="white" fill-opacity="0.8"/>
<circle cx="1440" cy="282.8" r="6" fill="white" fill-opacity="0.8"/>
<circle cx="1440" cy="260" r="6" fill="white" fill-opacity="0.8"/>
<circle cx="1440" cy="351.2" r="6" fill="white" fill-opacity="0.8"/>
<circle cx="1440" cy="465.2" r="6" fill="white" fill-opacity="0.8"/>
<circle cx="1440" cy="374" r="6" fill="white" fill-opacity="0.8"/>
<circle cx="1440" cy="510.8" r="6" fill="white" fill-opacity="0.8"/>
<circle cx="1440" cy="442.4" r="6" fill="white" fill-opacity="0.8"/>
<circle cx="1440" cy="419.6" r="6" fill="white" fill-opacity="0.8"/>
<circle cx="1440" cy="396.8" r="6" fill="white" fill-opacity="0.8"/>
<circle cx="1440" cy="488" r="6" fill="white" fill-opacity="0.8"/>
<circle cx="210.427" cy="180.793" r="4.57317" transform="rotate(-180 210.427 180.793)" fill="white" fill-opacity="0.9"/>
<circle cx="210.427" cy="129.573" r="4.57317" transform="rotate(-180 210.427 129.573)" fill="white" fill-opacity="0.9"/>
<circle cx="210.427" cy="155.183" r="4.57317" transform="rotate(-180 210.427 155.183)" fill="white" fill-opacity="0.9"/>
<circle cx="150.061" cy="180.793" r="4.57317" transform="rotate(-180 150.061 180.793)" fill="white" fill-opacity="0.9"/>
<circle cx="150.061" cy="129.573" r="4.57317" transform="rotate(-180 150.061 129.573)" fill="white" fill-opacity="0.9"/>
<circle cx="150.061" cy="155.183" r="4.57317" transform="rotate(-180 150.061 155.183)" fill="white" fill-opacity="0.9"/>
<circle cx="170.183" cy="180.793" r="4.57317" transform="rotate(-180 170.183 180.793)" fill="white" fill-opacity="0.9"/>
<circle cx="170.183" cy="129.573" r="4.57317" transform="rotate(-180 170.183 129.573)" fill="white" fill-opacity="0.9"/>
<circle cx="170.183" cy="155.183" r="4.57317" transform="rotate(-180 170.183 155.183)" fill="white" fill-opacity="0.9"/>
<circle cx="190.305" cy="180.793" r="4.57317" transform="rotate(-180 190.305 180.793)" fill="white" fill-opacity="0.9"/>
<circle cx="210.427" cy="206.402" r="4.57317" transform="rotate(-180 210.427 206.402)" fill="white" fill-opacity="0.9"/>
<circle cx="150.061" cy="206.402" r="4.57317" transform="rotate(-180 150.061 206.402)" fill="white" fill-opacity="0.9"/>
<circle cx="170.183" cy="206.402" r="4.57317" transform="rotate(-180 170.183 206.402)" fill="white" fill-opacity="0.9"/>
<circle cx="190.305" cy="206.402" r="4.57317" transform="rotate(-180 190.305 206.402)" fill="white" fill-opacity="0.9"/>
<circle cx="210.427" cy="232.012" r="4.57317" transform="rotate(-180 210.427 232.012)" fill="white" fill-opacity="0.9"/>
<circle cx="150.061" cy="232.012" r="4.57317" transform="rotate(-180 150.061 232.012)" fill="white" fill-opacity="0.9"/>
<circle cx="170.183" cy="232.012" r="4.57317" transform="rotate(-180 170.183 232.012)" fill="white" fill-opacity="0.9"/>
<circle cx="190.305" cy="232.012" r="4.57317" transform="rotate(-180 190.305 232.012)" fill="white" fill-opacity="0.9"/>
<circle cx="190.305" cy="129.573" r="4.57317" transform="rotate(-180 190.305 129.573)" fill="white" fill-opacity="0.9"/>
<circle cx="190.305" cy="155.183" r="4.57317" transform="rotate(-180 190.305 155.183)" fill="white" fill-opacity="0.9"/>
<circle cx="129.939" cy="180.793" r="4.57317" transform="rotate(-180 129.939 180.793)" fill="white" fill-opacity="0.9"/>
<circle cx="129.939" cy="129.573" r="4.57317" transform="rotate(-180 129.939 129.573)" fill="white" fill-opacity="0.9"/>
<circle cx="129.939" cy="155.183" r="4.57317" transform="rotate(-180 129.939 155.183)" fill="white" fill-opacity="0.9"/>
<circle cx="69.5731" cy="180.793" r="4.57317" transform="rotate(-180 69.5731 180.793)" fill="white" fill-opacity="0.9"/>
<circle cx="69.5731" cy="129.573" r="4.57317" transform="rotate(-180 69.5731 129.573)" fill="white" fill-opacity="0.9"/>
<circle cx="69.5731" cy="155.183" r="4.57317" transform="rotate(-180 69.5731 155.183)" fill="white" fill-opacity="0.9"/>
<circle cx="89.6951" cy="180.793" r="4.57317" transform="rotate(-180 89.6951 180.793)" fill="white" fill-opacity="0.9"/>
<circle cx="89.6951" cy="129.573" r="4.57317" transform="rotate(-180 89.6951 129.573)" fill="white" fill-opacity="0.9"/>
<circle cx="89.6951" cy="155.183" r="4.57317" transform="rotate(-180 89.6951 155.183)" fill="white" fill-opacity="0.9"/>
<circle cx="109.817" cy="180.793" r="4.57317" transform="rotate(-180 109.817 180.793)" fill="white" fill-opacity="0.9"/>
<circle cx="129.939" cy="206.402" r="4.57317" transform="rotate(-180 129.939 206.402)" fill="white" fill-opacity="0.9"/>
<circle cx="69.5731" cy="206.402" r="4.57317" transform="rotate(-180 69.5731 206.402)" fill="white" fill-opacity="0.9"/>
<circle cx="89.6951" cy="206.402" r="4.57317" transform="rotate(-180 89.6951 206.402)" fill="white" fill-opacity="0.9"/>
<circle cx="109.817" cy="206.402" r="4.57317" transform="rotate(-180 109.817 206.402)" fill="white" fill-opacity="0.9"/>
<circle cx="129.939" cy="232.012" r="4.57317" transform="rotate(-180 129.939 232.012)" fill="white" fill-opacity="0.9"/>
<circle cx="69.5731" cy="232.012" r="4.57317" transform="rotate(-180 69.5731 232.012)" fill="white" fill-opacity="0.9"/>
<circle cx="89.6951" cy="232.012" r="4.57317" transform="rotate(-180 89.6951 232.012)" fill="white" fill-opacity="0.9"/>
<circle cx="109.817" cy="232.012" r="4.57317" transform="rotate(-180 109.817 232.012)" fill="white" fill-opacity="0.9"/>
<circle cx="109.817" cy="129.573" r="4.57317" transform="rotate(-180 109.817 129.573)" fill="white" fill-opacity="0.9"/>
<circle cx="109.817" cy="155.183" r="4.57317" transform="rotate(-180 109.817 155.183)" fill="white" fill-opacity="0.9"/>
<circle cx="955" cy="56" r="16" fill="white" fill-opacity="0.3"/>
<circle cx="936" cy="884" r="5" transform="rotate(-90 936 884)" fill="white" fill-opacity="0.7"/>
<circle cx="917" cy="884" r="5" transform="rotate(-90 917 884)" fill="white" fill-opacity="0.7"/>
<circle cx="898" cy="884" r="5" transform="rotate(-90 898 884)" fill="white" fill-opacity="0.7"/>
<circle cx="879" cy="884" r="5" transform="rotate(-90 879 884)" fill="white" fill-opacity="0.7"/>
<circle cx="955" cy="884" r="5" transform="rotate(-90 955 884)" fill="white" fill-opacity="0.7"/>
<circle cx="936" cy="867" r="5" transform="rotate(-90 936 867)" fill="white" fill-opacity="0.7"/>
<circle cx="974" cy="884" r="5" transform="rotate(-90 974 884)" fill="white" fill-opacity="0.7"/>
<circle cx="974" cy="867" r="5" transform="rotate(-90 974 867)" fill="white" fill-opacity="0.7"/>
<circle cx="917" cy="867" r="5" transform="rotate(-90 917 867)" fill="white" fill-opacity="0.7"/>
<circle cx="898" cy="867" r="5" transform="rotate(-90 898 867)" fill="white" fill-opacity="0.7"/>
<circle cx="879" cy="867" r="5" transform="rotate(-90 879 867)" fill="white" fill-opacity="0.7"/>
<circle cx="955" cy="867" r="5" transform="rotate(-90 955 867)" fill="white" fill-opacity="0.7"/>
<circle cx="1050" cy="884" r="5" transform="rotate(-90 1050 884)" fill="white" fill-opacity="0.7"/>
<circle cx="1031" cy="884" r="5" transform="rotate(-90 1031 884)" fill="white" fill-opacity="0.7"/>
<circle cx="1012" cy="884" r="5" transform="rotate(-90 1012 884)" fill="white" fill-opacity="0.7"/>
<circle cx="993" cy="884" r="5" transform="rotate(-90 993 884)" fill="white" fill-opacity="0.7"/>
<circle cx="1069" cy="884" r="5" transform="rotate(-90 1069 884)" fill="white" fill-opacity="0.7"/>
<circle cx="1050" cy="867" r="5" transform="rotate(-90 1050 867)" fill="white" fill-opacity="0.7"/>
<circle cx="1088" cy="884" r="5" transform="rotate(-90 1088 884)" fill="white" fill-opacity="0.7"/>
<circle cx="1088" cy="867" r="5" transform="rotate(-90 1088 867)" fill="white" fill-opacity="0.7"/>
<circle cx="1031" cy="867" r="5" transform="rotate(-90 1031 867)" fill="white" fill-opacity="0.7"/>
<circle cx="1012" cy="867" r="5" transform="rotate(-90 1012 867)" fill="white" fill-opacity="0.7"/>
<circle cx="993" cy="867" r="5" transform="rotate(-90 993 867)" fill="white" fill-opacity="0.7"/>
<circle cx="1069" cy="867" r="5" transform="rotate(-90 1069 867)" fill="white" fill-opacity="0.7"/>
<circle cx="896.5" cy="565.5" r="103.5" fill="white" fill-opacity="0.2"/>
<circle cx="983.5" cy="492.5" r="40" stroke="white" stroke-opacity="0.8"/>
<circle cx="-53" cy="404" r="268" fill="white" fill-opacity="0.3"/>
<circle cx="458" cy="959" r="217.5" stroke="white" stroke-opacity="0.6" stroke-width="3"/>
<circle cx="1016.5" cy="-23.5" r="99" stroke="white" stroke-opacity="0.4" stroke-width="5"/>
<circle cx="901.5" cy="278.5" r="2.5" fill="white" fill-opacity="0.6"/>
<circle cx="901.5" cy="306.5" r="2.5" fill="white" fill-opacity="0.6"/>
<circle cx="901.5" cy="292.5" r="2.5" fill="white" fill-opacity="0.6"/>
<circle cx="934.5" cy="278.5" r="2.5" fill="white" fill-opacity="0.6"/>
<circle cx="934.5" cy="306.5" r="2.5" fill="white" fill-opacity="0.6"/>
<circle cx="934.5" cy="292.5" r="2.5" fill="white" fill-opacity="0.6"/>
<circle cx="923.5" cy="278.5" r="2.5" fill="white" fill-opacity="0.6"/>
<circle cx="923.5" cy="306.5" r="2.5" fill="white" fill-opacity="0.6"/>
<circle cx="923.5" cy="292.5" r="2.5" fill="white" fill-opacity="0.6"/>
<circle cx="912.5" cy="278.5" r="2.5" fill="white" fill-opacity="0.6"/>
<circle cx="901.5" cy="264.5" r="2.5" fill="white" fill-opacity="0.6"/>
<circle cx="934.5" cy="264.5" r="2.5" fill="white" fill-opacity="0.6"/>
<circle cx="923.5" cy="264.5" r="2.5" fill="white" fill-opacity="0.6"/>
<circle cx="912.5" cy="264.5" r="2.5" fill="white" fill-opacity="0.6"/>
<circle cx="912.5" cy="306.5" r="2.5" fill="white" fill-opacity="0.6"/>
<circle cx="912.5" cy="292.5" r="2.5" fill="white" fill-opacity="0.6"/>
<circle cx="945.5" cy="278.5" r="2.5" fill="white" fill-opacity="0.6"/>
<circle cx="945.5" cy="306.5" r="2.5" fill="white" fill-opacity="0.6"/>
<circle cx="945.5" cy="292.5" r="2.5" fill="white" fill-opacity="0.6"/>
<circle cx="978.5" cy="278.5" r="2.5" fill="white" fill-opacity="0.6"/>
<circle cx="978.5" cy="306.5" r="2.5" fill="white" fill-opacity="0.6"/>
<circle cx="978.5" cy="292.5" r="2.5" fill="white" fill-opacity="0.6"/>
<circle cx="967.5" cy="278.5" r="2.5" fill="white" fill-opacity="0.6"/>
<circle cx="967.5" cy="306.5" r="2.5" fill="white" fill-opacity="0.6"/>
<circle cx="967.5" cy="292.5" r="2.5" fill="white" fill-opacity="0.6"/>
<circle cx="956.5" cy="278.5" r="2.5" fill="white" fill-opacity="0.6"/>
<circle cx="945.5" cy="264.5" r="2.5" fill="white" fill-opacity="0.6"/>
<circle cx="978.5" cy="264.5" r="2.5" fill="white" fill-opacity="0.6"/>
<circle cx="967.5" cy="264.5" r="2.5" fill="white" fill-opacity="0.6"/>
<circle cx="956.5" cy="264.5" r="2.5" fill="white" fill-opacity="0.6"/>
<circle cx="956.5" cy="306.5" r="2.5" fill="white" fill-opacity="0.6"/>
<circle cx="956.5" cy="292.5" r="2.5" fill="white" fill-opacity="0.6"/>
<circle cx="901.5" cy="222.5" r="2.5" fill="white" fill-opacity="0.6"/>
<circle cx="901.5" cy="250.5" r="2.5" fill="white" fill-opacity="0.6"/>
<circle cx="901.5" cy="236.5" r="2.5" fill="white" fill-opacity="0.6"/>
<circle cx="934.5" cy="222.5" r="2.5" fill="white" fill-opacity="0.6"/>
<circle cx="934.5" cy="250.5" r="2.5" fill="white" fill-opacity="0.6"/>
<circle cx="934.5" cy="236.5" r="2.5" fill="white" fill-opacity="0.6"/>
<circle cx="923.5" cy="222.5" r="2.5" fill="white" fill-opacity="0.6"/>
<circle cx="923.5" cy="250.5" r="2.5" fill="white" fill-opacity="0.6"/>
<circle cx="923.5" cy="236.5" r="2.5" fill="white" fill-opacity="0.6"/>
<circle cx="912.5" cy="222.5" r="2.5" fill="white" fill-opacity="0.6"/>
<circle cx="901.5" cy="208.5" r="2.5" fill="white" fill-opacity="0.6"/>
<circle cx="934.5" cy="208.5" r="2.5" fill="white" fill-opacity="0.6"/>
<circle cx="923.5" cy="208.5" r="2.5" fill="white" fill-opacity="0.6"/>
<circle cx="912.5" cy="208.5" r="2.5" fill="white" fill-opacity="0.6"/>
<circle cx="912.5" cy="250.5" r="2.5" fill="white" fill-opacity="0.6"/>
<circle cx="912.5" cy="236.5" r="2.5" fill="white" fill-opacity="0.6"/>
<circle cx="945.5" cy="222.5" r="2.5" fill="white" fill-opacity="0.6"/>
<circle cx="945.5" cy="250.5" r="2.5" fill="white" fill-opacity="0.6"/>
<circle cx="945.5" cy="236.5" r="2.5" fill="white" fill-opacity="0.6"/>
<circle cx="978.5" cy="222.5" r="2.5" fill="white" fill-opacity="0.6"/>
<circle cx="978.5" cy="250.5" r="2.5" fill="white" fill-opacity="0.6"/>
<circle cx="978.5" cy="236.5" r="2.5" fill="white" fill-opacity="0.6"/>
<circle cx="967.5" cy="222.5" r="2.5" fill="white" fill-opacity="0.6"/>
<circle cx="967.5" cy="250.5" r="2.5" fill="white" fill-opacity="0.6"/>
<circle cx="967.5" cy="236.5" r="2.5" fill="white" fill-opacity="0.6"/>
<circle cx="956.5" cy="222.5" r="2.5" fill="white" fill-opacity="0.6"/>
<circle cx="945.5" cy="208.5" r="2.5" fill="white" fill-opacity="0.6"/>
<circle cx="978.5" cy="208.5" r="2.5" fill="white" fill-opacity="0.6"/>
<circle cx="967.5" cy="208.5" r="2.5" fill="white" fill-opacity="0.6"/>
<circle cx="956.5" cy="208.5" r="2.5" fill="white" fill-opacity="0.6"/>
<circle cx="956.5" cy="250.5" r="2.5" fill="white" fill-opacity="0.6"/>
<circle cx="956.5" cy="236.5" r="2.5" fill="white" fill-opacity="0.6"/>
<circle cx="901.5" cy="334.5" r="2.5" fill="white" fill-opacity="0.6"/>
<circle cx="901.5" cy="348.5" r="2.5" fill="white" fill-opacity="0.6"/>
<circle cx="934.5" cy="334.5" r="2.5" fill="white" fill-opacity="0.6"/>
<circle cx="934.5" cy="348.5" r="2.5" fill="white" fill-opacity="0.6"/>
<circle cx="923.5" cy="334.5" r="2.5" fill="white" fill-opacity="0.6"/>
<circle cx="923.5" cy="348.5" r="2.5" fill="white" fill-opacity="0.6"/>
<circle cx="912.5" cy="334.5" r="2.5" fill="white" fill-opacity="0.6"/>
<circle cx="901.5" cy="320.5" r="2.5" fill="white" fill-opacity="0.6"/>
<circle cx="934.5" cy="320.5" r="2.5" fill="white" fill-opacity="0.6"/>
<circle cx="923.5" cy="320.5" r="2.5" fill="white" fill-opacity="0.6"/>
<circle cx="912.5" cy="320.5" r="2.5" fill="white" fill-opacity="0.6"/>
<circle cx="912.5" cy="348.5" r="2.5" fill="white" fill-opacity="0.6"/>
<circle cx="945.5" cy="334.5" r="2.5" fill="white" fill-opacity="0.6"/>
<circle cx="945.5" cy="348.5" r="2.5" fill="white" fill-opacity="0.6"/>
<circle cx="978.5" cy="334.5" r="2.5" fill="white" fill-opacity="0.6"/>
<circle cx="978.5" cy="348.5" r="2.5" fill="white" fill-opacity="0.6"/>
<circle cx="967.5" cy="334.5" r="2.5" fill="white" fill-opacity="0.6"/>
<circle cx="967.5" cy="348.5" r="2.5" fill="white" fill-opacity="0.6"/>
<circle cx="956.5" cy="334.5" r="2.5" fill="white" fill-opacity="0.6"/>
<circle cx="945.5" cy="320.5" r="2.5" fill="white" fill-opacity="0.6"/>
<circle cx="978.5" cy="320.5" r="2.5" fill="white" fill-opacity="0.6"/>
<circle cx="967.5" cy="320.5" r="2.5" fill="white" fill-opacity="0.6"/>
<circle cx="956.5" cy="320.5" r="2.5" fill="white" fill-opacity="0.6"/>
<circle cx="956.5" cy="348.5" r="2.5" fill="white" fill-opacity="0.6"/>
<circle cx="846.5" cy="278.5" r="2.5" fill="white" fill-opacity="0.6"/>
<circle cx="846.5" cy="306.5" r="2.5" fill="white" fill-opacity="0.6"/>
<circle cx="846.5" cy="292.5" r="2.5" fill="white" fill-opacity="0.6"/>
<circle cx="846.5" cy="264.5" r="2.5" fill="white" fill-opacity="0.6"/>
<circle cx="857.5" cy="278.5" r="2.5" fill="white" fill-opacity="0.6"/>
<circle cx="857.5" cy="306.5" r="2.5" fill="white" fill-opacity="0.6"/>
<circle cx="857.5" cy="292.5" r="2.5" fill="white" fill-opacity="0.6"/>
<circle cx="890.5" cy="278.5" r="2.5" fill="white" fill-opacity="0.6"/>
<circle cx="890.5" cy="306.5" r="2.5" fill="white" fill-opacity="0.6"/>
<circle cx="890.5" cy="292.5" r="2.5" fill="white" fill-opacity="0.6"/>
<circle cx="879.5" cy="278.5" r="2.5" fill="white" fill-opacity="0.6"/>
<circle cx="879.5" cy="306.5" r="2.5" fill="white" fill-opacity="0.6"/>
<circle cx="879.5" cy="292.5" r="2.5" fill="white" fill-opacity="0.6"/>
<circle cx="868.5" cy="278.5" r="2.5" fill="white" fill-opacity="0.6"/>
<circle cx="857.5" cy="264.5" r="2.5" fill="white" fill-opacity="0.6"/>
<circle cx="890.5" cy="264.5" r="2.5" fill="white" fill-opacity="0.6"/>
<circle cx="879.5" cy="264.5" r="2.5" fill="white" fill-opacity="0.6"/>
<circle cx="868.5" cy="264.5" r="2.5" fill="white" fill-opacity="0.6"/>
<circle cx="868.5" cy="306.5" r="2.5" fill="white" fill-opacity="0.6"/>
<circle cx="868.5" cy="292.5" r="2.5" fill="white" fill-opacity="0.6"/>
<circle cx="846.5" cy="222.5" r="2.5" fill="white" fill-opacity="0.6"/>
<circle cx="846.5" cy="250.5" r="2.5" fill="white" fill-opacity="0.6"/>
<circle cx="846.5" cy="236.5" r="2.5" fill="white" fill-opacity="0.6"/>
<circle cx="846.5" cy="208.5" r="2.5" fill="white" fill-opacity="0.6"/>
<circle cx="857.5" cy="222.5" r="2.5" fill="white" fill-opacity="0.6"/>
<circle cx="857.5" cy="250.5" r="2.5" fill="white" fill-opacity="0.6"/>
<circle cx="857.5" cy="236.5" r="2.5" fill="white" fill-opacity="0.6"/>
<circle cx="890.5" cy="222.5" r="2.5" fill="white" fill-opacity="0.6"/>
<circle cx="890.5" cy="250.5" r="2.5" fill="white" fill-opacity="0.6"/>
<circle cx="890.5" cy="236.5" r="2.5" fill="white" fill-opacity="0.6"/>
<circle cx="879.5" cy="222.5" r="2.5" fill="white" fill-opacity="0.6"/>
<circle cx="879.5" cy="250.5" r="2.5" fill="white" fill-opacity="0.6"/>
<circle cx="879.5" cy="236.5" r="2.5" fill="white" fill-opacity="0.6"/>
<circle cx="868.5" cy="222.5" r="2.5" fill="white" fill-opacity="0.6"/>
<circle cx="857.5" cy="208.5" r="2.5" fill="white" fill-opacity="0.6"/>
<circle cx="890.5" cy="208.5" r="2.5" fill="white" fill-opacity="0.6"/>
<circle cx="879.5" cy="208.5" r="2.5" fill="white" fill-opacity="0.6"/>
<circle cx="868.5" cy="208.5" r="2.5" fill="white" fill-opacity="0.6"/>
<circle cx="868.5" cy="250.5" r="2.5" fill="white" fill-opacity="0.6"/>
<circle cx="868.5" cy="236.5" r="2.5" fill="white" fill-opacity="0.6"/>
<circle cx="846.5" cy="334.5" r="2.5" fill="white" fill-opacity="0.6"/>
<circle cx="846.5" cy="348.5" r="2.5" fill="white" fill-opacity="0.6"/>
<circle cx="846.5" cy="320.5" r="2.5" fill="white" fill-opacity="0.6"/>
<circle cx="857.5" cy="334.5" r="2.5" fill="white" fill-opacity="0.6"/>
<circle cx="857.5" cy="348.5" r="2.5" fill="white" fill-opacity="0.6"/>
<circle cx="890.5" cy="334.5" r="2.5" fill="white" fill-opacity="0.6"/>
<circle cx="890.5" cy="348.5" r="2.5" fill="white" fill-opacity="0.6"/>
<circle cx="879.5" cy="334.5" r="2.5" fill="white" fill-opacity="0.6"/>
<circle cx="879.5" cy="348.5" r="2.5" fill="white" fill-opacity="0.6"/>
<circle cx="868.5" cy="334.5" r="2.5" fill="white" fill-opacity="0.6"/>
<circle cx="857.5" cy="320.5" r="2.5" fill="white" fill-opacity="0.6"/>
<circle cx="890.5" cy="320.5" r="2.5" fill="white" fill-opacity="0.6"/>
<circle cx="879.5" cy="320.5" r="2.5" fill="white" fill-opacity="0.6"/>
<circle cx="868.5" cy="320.5" r="2.5" fill="white" fill-opacity="0.6"/>
<circle cx="868.5" cy="348.5" r="2.5" fill="white" fill-opacity="0.6"/>
<circle cx="542" cy="403" r="16" fill="white" fill-opacity="0.4"/>
<circle cx="423" cy="209" r="64.5" stroke="white"/>
<circle cx="282.5" cy="481.5" r="2.5" fill="white" fill-opacity="0.6"/>
<circle cx="282.5" cy="509.5" r="2.5" fill="white" fill-opacity="0.6"/>
<circle cx="282.5" cy="495.5" r="2.5" fill="white" fill-opacity="0.6"/>
<circle cx="315.5" cy="481.5" r="2.5" fill="white" fill-opacity="0.6"/>
<circle cx="315.5" cy="509.5" r="2.5" fill="white" fill-opacity="0.6"/>
<circle cx="315.5" cy="495.5" r="2.5" fill="white" fill-opacity="0.6"/>
<circle cx="304.5" cy="481.5" r="2.5" fill="white" fill-opacity="0.6"/>
<circle cx="304.5" cy="509.5" r="2.5" fill="white" fill-opacity="0.6"/>
<circle cx="304.5" cy="495.5" r="2.5" fill="white" fill-opacity="0.6"/>
<circle cx="293.5" cy="481.5" r="2.5" fill="white" fill-opacity="0.6"/>
<circle cx="282.5" cy="467.5" r="2.5" fill="white" fill-opacity="0.6"/>
<circle cx="315.5" cy="467.5" r="2.5" fill="white" fill-opacity="0.6"/>
<circle cx="304.5" cy="467.5" r="2.5" fill="white" fill-opacity="0.6"/>
<circle cx="293.5" cy="467.5" r="2.5" fill="white" fill-opacity="0.6"/>
<circle cx="293.5" cy="509.5" r="2.5" fill="white" fill-opacity="0.6"/>
<circle cx="293.5" cy="495.5" r="2.5" fill="white" fill-opacity="0.6"/>
<circle cx="326.5" cy="481.5" r="2.5" fill="white" fill-opacity="0.6"/>
<circle cx="326.5" cy="509.5" r="2.5" fill="white" fill-opacity="0.6"/>
<circle cx="326.5" cy="495.5" r="2.5" fill="white" fill-opacity="0.6"/>
<circle cx="337.5" cy="481.5" r="2.5" fill="white" fill-opacity="0.6"/>
<circle cx="326.5" cy="467.5" r="2.5" fill="white" fill-opacity="0.6"/>
<circle cx="337.5" cy="467.5" r="2.5" fill="white" fill-opacity="0.6"/>
<circle cx="337.5" cy="509.5" r="2.5" fill="white" fill-opacity="0.6"/>
<circle cx="337.5" cy="495.5" r="2.5" fill="white" fill-opacity="0.6"/>
<circle cx="282.5" cy="453.5" r="2.5" fill="white" fill-opacity="0.6"/>
<circle cx="315.5" cy="453.5" r="2.5" fill="white" fill-opacity="0.6"/>
<circle cx="304.5" cy="453.5" r="2.5" fill="white" fill-opacity="0.6"/>
<circle cx="293.5" cy="453.5" r="2.5" fill="white" fill-opacity="0.6"/>
<circle cx="326.5" cy="453.5" r="2.5" fill="white" fill-opacity="0.6"/>
<circle cx="337.5" cy="453.5" r="2.5" fill="white" fill-opacity="0.6"/>
<circle cx="282.5" cy="439.5" r="2.5" fill="white" fill-opacity="0.6"/>
<circle cx="282.5" cy="425.5" r="2.5" fill="white" fill-opacity="0.6"/>
<circle cx="315.5" cy="439.5" r="2.5" fill="white" fill-opacity="0.6"/>
<circle cx="315.5" cy="425.5" r="2.5" fill="white" fill-opacity="0.6"/>
<circle cx="304.5" cy="439.5" r="2.5" fill="white" fill-opacity="0.6"/>
<circle cx="304.5" cy="425.5" r="2.5" fill="white" fill-opacity="0.6"/>
<circle cx="293.5" cy="439.5" r="2.5" fill="white" fill-opacity="0.6"/>
<circle cx="293.5" cy="425.5" r="2.5" fill="white" fill-opacity="0.6"/>
<circle cx="326.5" cy="439.5" r="2.5" fill="white" fill-opacity="0.6"/>
<circle cx="326.5" cy="425.5" r="2.5" fill="white" fill-opacity="0.6"/>
<circle cx="337.5" cy="439.5" r="2.5" fill="white" fill-opacity="0.6"/>
<circle cx="337.5" cy="425.5" r="2.5" fill="white" fill-opacity="0.6"/>
<circle cx="282.5" cy="621.5" r="2.5" fill="white" fill-opacity="0.6"/>
<circle cx="282.5" cy="649.5" r="2.5" fill="white" fill-opacity="0.6"/>
<circle cx="282.5" cy="635.5" r="2.5" fill="white" fill-opacity="0.6"/>
<circle cx="315.5" cy="621.5" r="2.5" fill="white" fill-opacity="0.6"/>
<circle cx="315.5" cy="649.5" r="2.5" fill="white" fill-opacity="0.6"/>
<circle cx="315.5" cy="635.5" r="2.5" fill="white" fill-opacity="0.6"/>
<circle cx="304.5" cy="621.5" r="2.5" fill="white" fill-opacity="0.6"/>
<circle cx="304.5" cy="649.5" r="2.5" fill="white" fill-opacity="0.6"/>
<circle cx="304.5" cy="635.5" r="2.5" fill="white" fill-opacity="0.6"/>
<circle cx="293.5" cy="621.5" r="2.5" fill="white" fill-opacity="0.6"/>
<circle cx="282.5" cy="607.5" r="2.5" fill="white" fill-opacity="0.6"/>
<circle cx="315.5" cy="607.5" r="2.5" fill="white" fill-opacity="0.6"/>
<circle cx="304.5" cy="607.5" r="2.5" fill="white" fill-opacity="0.6"/>
<circle cx="293.5" cy="607.5" r="2.5" fill="white" fill-opacity="0.6"/>
<circle cx="293.5" cy="649.5" r="2.5" fill="white" fill-opacity="0.6"/>
<circle cx="293.5" cy="635.5" r="2.5" fill="white" fill-opacity="0.6"/>
<circle cx="326.5" cy="621.5" r="2.5" fill="white" fill-opacity="0.6"/>
<circle cx="326.5" cy="649.5" r="2.5" fill="white" fill-opacity="0.6"/>
<circle cx="326.5" cy="635.5" r="2.5" fill="white" fill-opacity="0.6"/>
<circle cx="337.5" cy="621.5" r="2.5" fill="white" fill-opacity="0.6"/>
<circle cx="326.5" cy="607.5" r="2.5" fill="white" fill-opacity="0.6"/>
<circle cx="337.5" cy="607.5" r="2.5" fill="white" fill-opacity="0.6"/>
<circle cx="337.5" cy="649.5" r="2.5" fill="white" fill-opacity="0.6"/>
<circle cx="337.5" cy="635.5" r="2.5" fill="white" fill-opacity="0.6"/>
<circle cx="282.5" cy="593.5" r="2.5" fill="white" fill-opacity="0.6"/>
<circle cx="315.5" cy="593.5" r="2.5" fill="white" fill-opacity="0.6"/>
<circle cx="304.5" cy="593.5" r="2.5" fill="white" fill-opacity="0.6"/>
<circle cx="293.5" cy="593.5" r="2.5" fill="white" fill-opacity="0.6"/>
<circle cx="326.5" cy="593.5" r="2.5" fill="white" fill-opacity="0.6"/>
<circle cx="337.5" cy="593.5" r="2.5" fill="white" fill-opacity="0.6"/>
<circle cx="282.5" cy="551.5" r="2.5" fill="white" fill-opacity="0.6"/>
<circle cx="282.5" cy="579.5" r="2.5" fill="white" fill-opacity="0.6"/>
<circle cx="282.5" cy="565.5" r="2.5" fill="white" fill-opacity="0.6"/>
<circle cx="315.5" cy="551.5" r="2.5" fill="white" fill-opacity="0.6"/>
<circle cx="315.5" cy="579.5" r="2.5" fill="white" fill-opacity="0.6"/>
<circle cx="315.5" cy="565.5" r="2.5" fill="white" fill-opacity="0.6"/>
<circle cx="304.5" cy="551.5" r="2.5" fill="white" fill-opacity="0.6"/>
<circle cx="304.5" cy="579.5" r="2.5" fill="white" fill-opacity="0.6"/>
<circle cx="304.5" cy="565.5" r="2.5" fill="white" fill-opacity="0.6"/>
<circle cx="293.5" cy="551.5" r="2.5" fill="white" fill-opacity="0.6"/>
<circle cx="282.5" cy="537.5" r="2.5" fill="white" fill-opacity="0.6"/>
<circle cx="315.5" cy="537.5" r="2.5" fill="white" fill-opacity="0.6"/>
<circle cx="304.5" cy="537.5" r="2.5" fill="white" fill-opacity="0.6"/>
<circle cx="293.5" cy="537.5" r="2.5" fill="white" fill-opacity="0.6"/>
<circle cx="293.5" cy="579.5" r="2.5" fill="white" fill-opacity="0.6"/>
<circle cx="293.5" cy="565.5" r="2.5" fill="white" fill-opacity="0.6"/>
<circle cx="326.5" cy="551.5" r="2.5" fill="white" fill-opacity="0.6"/>
<circle cx="326.5" cy="579.5" r="2.5" fill="white" fill-opacity="0.6"/>
<circle cx="326.5" cy="565.5" r="2.5" fill="white" fill-opacity="0.6"/>
<circle cx="337.5" cy="551.5" r="2.5" fill="white" fill-opacity="0.6"/>
<circle cx="326.5" cy="537.5" r="2.5" fill="white" fill-opacity="0.6"/>
<circle cx="337.5" cy="537.5" r="2.5" fill="white" fill-opacity="0.6"/>
<circle cx="337.5" cy="579.5" r="2.5" fill="white" fill-opacity="0.6"/>
<circle cx="337.5" cy="565.5" r="2.5" fill="white" fill-opacity="0.6"/>
<circle cx="282.5" cy="523.5" r="2.5" fill="white" fill-opacity="0.6"/>
<circle cx="315.5" cy="523.5" r="2.5" fill="white" fill-opacity="0.6"/>
<circle cx="304.5" cy="523.5" r="2.5" fill="white" fill-opacity="0.6"/>
<circle cx="293.5" cy="523.5" r="2.5" fill="white" fill-opacity="0.6"/>
<circle cx="326.5" cy="523.5" r="2.5" fill="white" fill-opacity="0.6"/>
<circle cx="337.5" cy="523.5" r="2.5" fill="white" fill-opacity="0.6"/>
<circle cx="14" cy="652" r="66.5" stroke="white"/>
<circle cx="1208" cy="270" r="73" fill="white" fill-opacity="0.5"/>
<circle cx="205" r="37" fill="white" fill-opacity="0.2"/>
<circle cx="1322" cy="3" r="10" transform="rotate(-90 1322 3)" fill="white" fill-opacity="0.4"/>
<circle cx="1280" cy="3" r="10" transform="rotate(-90 1280 3)" fill="white" fill-opacity="0.4"/>
<circle cx="1238" cy="3" r="10" transform="rotate(-90 1238 3)" fill="white" fill-opacity="0.4"/>
<circle cx="1364" cy="3" r="10" transform="rotate(-90 1364 3)" fill="white" fill-opacity="0.4"/>
<circle cx="1196" cy="3" r="10" transform="rotate(-90 1196 3)" fill="white" fill-opacity="0.4"/>
<circle cx="1112" cy="3" r="10" transform="rotate(-90 1112 3)" fill="white" fill-opacity="0.4"/>
<circle cx="1070" cy="3" r="10" transform="rotate(-90 1070 3)" fill="white" fill-opacity="0.4"/>
<circle cx="1154" cy="3" r="10" transform="rotate(-90 1154 3)" fill="white" fill-opacity="0.4"/>
</g>
<defs>
<linearGradient id="paint0_linear_221_339" x1="756" y1="0" x2="756" y2="889" gradientUnits="userSpaceOnUse">
<stop stop-color="#F0A5BB"/>
<stop offset="1" stop-color="#CDC2F3"/>
</linearGradient>
<clipPath id="clip0_221_339">
<rect width="1512" height="889" fill="white"/>
</clipPath>
</defs>
</svg>
